<svg width="63" height="24" viewBox="0 0 63 24" fill="none" xmlns="http://www.w3.org/2000/svg">
<g clip-path="url(#clip0_1_10)">
<path d="M3.92117 5.31121H1.10121L2.02968 1.02161H13.0353L12.1068 5.31121H9.25016L5.32899 23.6943H0L3.92117 5.31121Z" fill="#E7B803"/>
<path d="M24.1748 18.7229C23.9351 19.7446 23.3154 23.0125 23.2118 23.6922H18.0188C18.0533 23.284 18.1224 22.8415 18.1915 22.3649C17.1249 23.6238 16.0258 24 14.7519 24C12.2407 24 11.1416 21.9225 12.001 17.9065C12.8604 13.9567 14.7864 12.5268 19.4633 12.0844C19.7375 12.0502 20.1176 12.016 20.2882 12.016L20.666 10.2121C20.9057 9.05367 20.7351 8.74804 20.1845 8.74804C19.6685 8.74804 19.3942 9.01948 19.1524 10.0753L18.9451 10.9602H13.9961L14.1343 10.3126C14.9937 6.29653 16.8506 5.0697 20.5645 5.0697C24.3821 5.0697 26.8587 6.26019 25.8611 10.8918L24.1748 18.7229ZM19.5324 15.5233C19.4288 15.5233 19.2582 15.5575 19.12 15.5917C18.1224 15.7969 17.6755 16.2052 17.3322 17.9407C17.0903 19.1995 17.3322 19.6762 17.8828 19.6762C18.537 19.6762 18.7767 19.1312 18.9149 18.5519L19.5324 15.5233Z" fill="#E7B803"/>
<path d="M31.6026 5.34544H36.9337L33.0125 23.6944H27.6814L31.6026 5.34544ZM32.7383 0H38.0695L37.1756 4.22121H31.8444L32.7383 0Z" fill="#E7B803"/>
<path d="M38.1019 20.561L46.253 5.37961H41.4725L42.401 1.02161H52.7178L51.9966 4.42636L44.4652 19.3363H49.4854L48.11 23.6943H37.4498L38.1019 20.561Z" fill="#E7B803"/>
<path d="M59.081 18.3489H53.7499L57.6711 0H63.0022L59.081 18.3489ZM57.9453 23.6922H52.6141L53.5081 19.471H58.8392L57.9453 23.6922Z" fill="#E7B803"/>
</g>
<defs>
<clipPath id="clip0_1_10">
<rect width="63" height="24" fill="white"/>
</clipPath>
</defs>
</svg>
